<svg width="92" height="60" viewBox="0 0 92 60" fill="none" xmlns="http://www.w3.org/2000/svg">
<path d="M85.6642 25.4361L83.3396 15.6109C83.9751 15.4683 84.452 14.8725 84.452 14.1587V12.5746C84.452 9.13506 81.8038 6.33693 78.5489 6.33693H67.9607V3.06935C67.9607 1.37684 66.6577 0 65.056 0H11.0839C9.48216 0 8.17915 1.37684 8.17915 3.06935V30.0003C8.17915 30.8204 8.80839 31.4855 9.58472 31.4855C10.3609 31.4855 10.9903 30.8206 10.9903 30.0003V3.06935C10.9903 3.0147 11.0322 2.97042 11.0839 2.97042H65.0558C65.1075 2.97042 65.1494 3.0147 65.1494 3.06935V30.0007C65.1494 30.8208 65.7786 31.4859 66.555 31.4859C67.3311 31.4859 67.9605 30.821 67.9605 30.0007V28.317H84.5407C84.5421 28.317 84.5432 28.3174 84.5444 28.3174C84.5458 28.3174 84.5471 28.3172 84.5483 28.3172C86.5885 28.3187 88.3209 29.7337 88.9159 31.6835H84.5455C83.7693 31.6835 83.1399 32.3484 83.1399 33.1687V36.337C83.1399 38.903 85.1155 40.9905 87.5439 40.9905H89.1369V47.5251H85.4617C84.2544 43.8416 80.9406 41.1884 77.0493 41.1884C73.158 41.1884 69.844 43.8416 68.6369 47.5251H67.9602V36.3368C67.9602 35.5167 67.331 34.8516 66.5546 34.8516C65.7785 34.8516 65.149 35.5165 65.149 36.3368V47.5247H35.9878C34.7805 43.8413 31.4667 41.188 27.5754 41.188C23.6841 41.188 20.3701 43.8413 19.163 47.5247H11.0839C11.0322 47.5247 10.9903 47.4805 10.9903 47.4258V44.1584H17.0809C17.857 44.1584 18.4864 43.4935 18.4864 42.6732C18.4864 41.8529 17.8572 41.188 17.0809 41.188H3.58794C2.81179 41.188 2.18237 41.8529 2.18237 42.6732C2.18237 43.4935 2.81161 44.1584 3.58794 44.1584H8.17933V47.4258C8.17933 49.1183 9.48233 50.4952 11.0841 50.4952H18.6763C18.676 50.5281 18.6739 50.5609 18.6739 50.5941C18.6739 55.7806 22.6672 60 27.5754 60C32.4836 60 36.4769 55.7806 36.4769 50.5941C36.4769 50.5607 36.4748 50.5281 36.4745 50.4952H68.1502C68.1499 50.5281 68.1478 50.5609 68.1478 50.5941C68.1478 55.7806 72.1411 60 77.0493 60C81.9575 60 85.9509 55.7806 85.9509 50.5941C85.9509 50.5607 85.9488 50.5281 85.9484 50.4952H90.5424C91.3186 50.4952 91.948 49.8303 91.948 49.01V33.1684C91.9482 29.2572 89.2172 26.0076 85.6642 25.4361ZM67.9607 9.30717H78.5489C80.2539 9.30717 81.6411 10.7729 81.6411 12.5746V12.6735H67.9607V9.30717ZM67.9607 25.3468V15.6437H80.4499L82.7456 25.3468H67.9607ZM27.5754 57.0301C24.2171 57.0301 21.4848 54.1433 21.4848 50.5945C21.4848 47.0457 24.2171 44.1588 27.5754 44.1588C30.9337 44.1588 33.666 47.0457 33.666 50.5945C33.666 54.1433 30.9337 57.0301 27.5754 57.0301ZM77.0497 57.0301C73.6914 57.0301 70.9591 54.1433 70.9591 50.5945C70.9591 47.0457 73.6914 44.1588 77.0497 44.1588C80.408 44.1588 83.1403 47.0457 83.1403 50.5945C83.1403 54.1433 80.408 57.0301 77.0497 57.0301ZM89.1372 38.0201H87.5442C86.6658 38.0201 85.9512 37.265 85.9512 36.3368V34.6536H89.137V38.0201H89.1372Z" fill="white"/>
<path d="M27.6158 48C26.2408 48 25.1223 49.1214 25.1223 50.5C25.1223 51.8786 26.2408 53 27.6158 53C28.9908 53 30.1093 51.8786 30.1093 50.5C30.1093 49.1214 28.9908 48 27.6158 48Z" fill="white"/>
<path d="M77.0902 48C75.7152 48 74.5967 49.1214 74.5967 50.5C74.5967 51.8786 75.7152 53 77.0902 53C78.4652 53 79.5837 51.8786 79.5837 50.5C79.5837 49.1214 78.4652 48 77.0902 48Z" fill="white"/>
<path d="M34.5509 37H13.5618C12.7857 37 12.1562 37.6788 12.1562 38.5162C12.1562 39.3536 12.7855 40.0324 13.5618 40.0324H34.5509C35.3271 40.0324 35.9565 39.3536 35.9565 38.5162C35.9565 37.6788 35.3272 37 34.5509 37Z" fill="white"/>
<path d="M19.5837 33H1.59307C0.816912 33 0.1875 33.6788 0.1875 34.5162C0.1875 35.3536 0.816737 36.0324 1.59307 36.0324H19.5837C20.3599 36.0324 20.9893 35.3536 20.9893 34.5162C20.9893 33.6788 20.3599 33 19.5837 33Z" fill="white"/>
<path d="M51.0574 14.999C50.5086 14.407 49.6185 14.407 49.0697 14.9992L36.5705 28.482L30.0683 21.468C29.5194 20.8758 28.6294 20.8758 28.0806 21.468C27.5317 22.0601 27.5317 23.0199 28.0806 23.6121L35.5768 31.6983C35.8512 31.9944 36.2109 32.1423 36.5705 32.1423C36.9301 32.1423 37.2901 31.9944 37.5643 31.6983L51.0572 17.1433C51.6061 16.5509 51.6061 15.5911 51.0574 14.999Z" fill="white"/>
</svg>
