<svg width="75" height="78" viewBox="0 0 75 78" fill="none" xmlns="http://www.w3.org/2000/svg">
<path d="M23.2099 13.5635C22.5867 13.5635 22.0813 14.1084 22.0813 14.7808C22.0813 16.2575 20.9675 17.459 19.5986 17.459C18.2296 17.459 17.1158 16.2575 17.1158 14.7808C17.1158 13.3041 18.2296 12.1027 19.5986 12.1027C20.2218 12.1027 20.7271 11.5577 20.7271 10.8853C20.7271 10.2129 20.2219 9.66797 19.5986 9.66797C16.9851 9.66797 14.8589 11.9616 14.8589 14.7807C14.8589 17.5997 16.9852 19.8934 19.5986 19.8934C22.2119 19.8934 24.3383 17.5997 24.3383 14.7807C24.3384 14.1084 23.833 13.5635 23.2099 13.5635Z" fill="white"/>
<path d="M23.2099 27.8465C22.5867 27.8465 22.0813 28.3915 22.0813 29.0639C22.0813 30.5406 20.9675 31.742 19.5986 31.742C18.2296 31.742 17.1158 30.5406 17.1158 29.0639C17.1158 27.5872 18.2296 26.3858 19.5986 26.3858C20.2218 26.3858 20.7271 25.8408 20.7271 25.1684C20.7271 24.496 20.2219 23.951 19.5986 23.951C16.9851 23.951 14.8589 26.2447 14.8589 29.0638C14.8589 31.8828 16.9852 34.1765 19.5986 34.1765C22.2119 34.1765 24.3383 31.8828 24.3383 29.0638C24.3384 28.3917 23.833 27.8465 23.2099 27.8465Z" fill="white"/>
<path d="M41.5336 31.3079H33.1075C32.4844 31.3079 31.979 31.8529 31.979 32.5253C31.979 33.1976 32.4842 33.7426 33.1075 33.7426H41.5336C42.1568 33.7426 42.6621 33.1976 42.6621 32.5253C42.6621 31.8529 42.1569 31.3079 41.5336 31.3079Z" fill="white"/>
<path d="M41.5336 26.1139H33.1075C32.4844 26.1139 31.979 26.6589 31.979 27.3313C31.979 28.0037 32.4842 28.5486 33.1075 28.5486H41.5336C42.1568 28.5486 42.6621 28.0037 42.6621 27.3313C42.6621 26.6589 42.1569 26.1139 41.5336 26.1139Z" fill="white"/>
<path d="M39.1261 45.5909H33.1075C32.4844 45.5909 31.979 46.1359 31.979 46.8083C31.979 47.4807 32.4842 48.0256 33.1075 48.0256H39.1261C39.7493 48.0256 40.2546 47.4807 40.2546 46.8083C40.2546 46.1359 39.7493 45.5909 39.1261 45.5909Z" fill="white"/>
<path d="M41.5336 40.3972H33.1075C32.4844 40.3972 31.979 40.9421 31.979 41.6145C31.979 42.2869 32.4842 42.8318 33.1075 42.8318H41.5336C42.1568 42.8318 42.6621 42.2869 42.6621 41.6145C42.6621 40.9421 42.1569 40.3972 41.5336 40.3972Z" fill="white"/>
<path d="M52.3671 17.0247H33.1075C32.4844 17.0247 31.979 17.5696 31.979 18.242C31.979 18.9144 32.4842 19.4594 33.1075 19.4594H52.367C52.9901 19.4594 53.4955 18.9144 53.4955 18.242C53.4955 17.5696 52.9903 17.0247 52.3671 17.0247Z" fill="white"/>
<path d="M47.5521 11.8307H33.1075C32.4844 11.8307 31.979 12.3757 31.979 13.0481C31.979 13.7205 32.4842 14.2655 33.1075 14.2655H47.5521C48.1753 14.2655 48.6807 13.7205 48.6807 13.0481C48.6807 12.3757 48.1755 11.8307 47.5521 11.8307Z" fill="white"/>
<path d="M23.2099 42.1297C22.5867 42.1297 22.0813 42.6747 22.0813 43.3471C22.0813 44.8238 20.9675 46.0252 19.5986 46.0252C18.2296 46.0252 17.1158 44.8238 17.1158 43.3471C17.1158 41.8704 18.2296 40.6689 19.5986 40.6689C20.2218 40.6689 20.7271 40.1239 20.7271 39.4516C20.7271 38.7792 20.2219 38.2342 19.5986 38.2342C16.9851 38.2342 14.8589 40.5279 14.8589 43.3469C14.8589 46.166 16.9852 48.4597 19.5986 48.4597C22.2119 48.4597 24.3383 46.166 24.3383 43.3469C24.3384 42.6747 23.833 42.1297 23.2099 42.1297Z" fill="white"/>
<path d="M59.2878 0H5.59226C3.03436 0 0.953125 1.71101 0.953125 3.81425V58.3499C0.953125 60.4531 3.03417 62.1641 5.59226 62.1641H32.4401C33.2577 62.1641 33.9208 61.6191 33.9208 60.9468C33.9208 60.2745 33.2579 59.7294 32.4401 59.7294H5.59226C4.66698 59.7294 3.9142 59.1105 3.9142 58.3497V3.81425C3.9142 3.0535 4.66698 2.43457 5.59226 2.43457H59.2878C60.2131 2.43457 60.9659 3.0535 60.9659 3.81425V44.067C60.9659 44.7392 61.6287 45.2843 62.4465 45.2843C63.2641 45.2843 63.9271 44.7393 63.9271 44.067V3.81425C63.9269 1.71101 61.8459 0 59.2878 0Z" fill="white"/>
<path d="M71.0456 49.3646C69.9968 49.2518 68.9485 49.5725 68.1188 50.252C67.4579 49.0558 66.3309 48.2071 65.027 48.0662C63.9779 47.9535 62.9297 48.2742 62.1002 48.9536C61.4393 47.7573 60.3123 46.9086 59.0083 46.7677C58.2074 46.6815 57.4075 46.8479 56.7047 47.2338V31.7314C56.7047 30.4727 56.2083 29.2661 55.3425 28.4211C54.4775 27.5768 53.3118 27.1647 52.1441 27.2907C50.0609 27.5158 48.4291 29.5476 48.4291 31.9166V47.4582L45.1118 51.0366C43.349 52.9382 42.6374 55.6362 43.2085 58.2541L45.7269 69.8001C46.7474 74.4786 50.5719 77.7461 55.0274 77.7461H65.2059C70.4743 77.7461 74.7605 73.1226 74.7605 67.4395V53.9908C74.7606 51.6215 73.1289 49.5897 71.0456 49.3646ZM72.5036 67.4392C72.5036 71.7797 69.2299 75.3111 65.2061 75.3111H55.0276C51.6245 75.3111 48.7033 72.8155 47.9239 69.242L45.4054 57.696C45.0147 55.905 45.5016 54.0588 46.7077 52.7578L48.4291 50.9009V55.1037C48.4291 55.7759 48.9343 56.3211 49.5576 56.3211C50.181 56.3211 50.6862 55.7761 50.6862 55.1037V31.9165C50.6862 30.7829 51.4253 29.8151 52.3692 29.7133C52.9113 29.6545 53.4297 29.8371 53.8284 30.2264C54.2221 30.6107 54.4479 31.1594 54.4479 31.7315V53.1562C54.4479 53.8285 54.9531 54.3736 55.5764 54.3736C56.1998 54.3736 56.705 53.8286 56.705 53.1562V51.2085C56.705 50.6363 56.9306 50.0877 57.3245 49.7034C57.7234 49.3141 58.2416 49.1314 58.7837 49.1903C59.7274 49.2922 60.4667 50.2601 60.4667 51.3936V54.4544C60.4667 55.1266 60.9719 55.6718 61.5952 55.6718C62.2184 55.6718 62.7238 55.1268 62.7238 54.4544V52.5066C62.7238 51.9345 62.9494 51.3859 63.3433 51.0015C63.7422 50.6122 64.2605 50.4297 64.8025 50.4884C65.7462 50.5903 66.4855 51.5582 66.4855 52.6917V55.7527C66.4855 56.4249 66.9907 56.97 67.614 56.97C68.2372 56.97 68.7426 56.4251 68.7426 55.7527V53.8049C68.7426 53.2328 68.9682 52.6842 69.3621 52.2998C69.761 51.9106 70.2789 51.7278 70.8213 51.7869C71.765 51.8886 72.5043 52.8565 72.5043 53.99V67.4392H72.5036Z" fill="white"/>
</svg>
