<svg width="65" height="64" viewBox="0 0 65 64" fill="none" xmlns="http://www.w3.org/2000/svg">
<path d="M63.3772 35.1929C63.0205 33.9138 62.6848 32.7047 62.6848 31.6014C62.6848 30.4981 63.0205 29.289 63.3772 28.0098C63.9447 25.9736 64.5302 23.8673 63.8295 21.8201C63.1024 19.6904 61.2902 18.2986 59.5377 16.9548C58.4874 16.1483 57.4952 15.3871 56.8514 14.549C56.1965 13.6944 55.733 12.554 55.2446 11.3463C54.4384 9.36225 53.6059 7.30954 51.741 6.02075C49.9066 4.7512 47.6171 4.62891 45.4067 4.51213C44.0275 4.43931 42.7231 4.36923 41.6311 4.03261C40.6099 3.71797 39.5525 3.06533 38.4342 2.37423C36.6345 1.26131 34.5934 0 32.2331 0C29.8728 0 27.8317 1.26131 26.032 2.3756C24.9136 3.06671 23.8591 3.72072 22.8365 4.03399C21.743 4.37061 20.4387 4.44068 19.0595 4.5135C16.8477 4.63166 14.561 4.75257 12.7252 6.02212C10.8603 7.31091 10.0278 9.36225 9.22159 11.3463C8.73039 12.554 8.26694 13.6958 7.61201 14.5504C6.96818 15.3912 5.97606 16.1524 4.92567 16.9603C3.17455 18.3054 1.36516 19.6945 0.638071 21.8214C-0.0626529 23.87 0.522903 25.975 1.08903 28.0126C1.44564 29.2917 1.78143 30.4995 1.78143 31.6028C1.78143 32.7061 1.44564 33.9151 1.08903 35.1943C0.522903 37.2305 -0.0626529 39.3368 0.638071 41.3868C1.36516 43.5137 3.17594 44.9056 4.92706 46.2493C5.97745 47.0545 6.96956 47.817 7.61201 48.6551C8.26833 49.5097 8.73178 50.6501 9.22159 51.8592C10.0278 53.8433 10.8617 55.896 12.728 57.1875C14.561 58.4543 16.8491 58.5752 19.0595 58.692C20.4387 58.7648 21.743 58.8349 22.8351 59.1715C23.8563 59.4862 24.9123 60.1388 26.0293 60.8285C27.8303 61.9401 29.8714 63.2028 32.2331 63.2028C34.5947 63.2028 36.6372 61.9401 38.4397 60.8272C39.5567 60.1374 40.6113 59.4848 41.6339 59.1701C42.7259 58.8335 44.0302 58.7635 45.4095 58.6906C47.6213 58.5738 49.908 58.4529 51.741 57.1861C53.61 55.8946 54.4426 53.8391 55.2488 51.8537C55.7386 50.6474 56.2006 49.507 56.8528 48.6551C57.4966 47.817 58.4887 47.0545 59.5391 46.2493C61.2916 44.9042 63.1024 43.5137 63.8309 41.3854C64.5316 39.3355 63.9447 37.2305 63.3772 35.1929ZM61.2013 40.5047C60.742 41.8485 59.3308 42.9312 57.8378 44.0771C56.693 44.9564 55.5081 45.866 54.6422 46.9926C53.7639 48.1413 53.2088 49.507 52.6719 50.8301C51.9878 52.5174 51.3412 54.1098 50.152 54.9314C48.967 55.7503 47.1674 55.8451 45.2608 55.9454C43.772 56.0237 42.2304 56.1048 40.8067 56.5445C39.4455 56.9663 38.1856 57.7426 36.9687 58.4955C35.3383 59.504 33.7995 60.4548 32.2329 60.4548C30.6664 60.4548 29.1289 59.504 27.4985 58.4955C26.283 57.744 25.0245 56.9663 23.6619 56.5445C22.2382 56.1062 20.6966 56.0237 19.2078 55.9454C17.3013 55.8451 15.5002 55.749 14.3166 54.9314C13.1288 54.1098 12.4808 52.5174 11.7968 50.8315C11.2598 49.5084 10.7033 48.1413 9.82363 46.9926C8.95917 45.866 7.77418 44.9564 6.62805 44.0757C5.13641 42.9298 3.72663 41.8485 3.26735 40.5047C2.83859 39.253 3.28955 37.6345 3.76549 35.9225C4.15401 34.5224 4.5564 33.077 4.5564 31.6C4.5564 30.123 4.15401 28.6789 3.76549 27.2789C3.28816 25.5669 2.83859 23.9497 3.26735 22.698C3.72663 21.3543 5.13502 20.273 6.62666 19.1271C7.77279 18.2464 8.95917 17.3354 9.82224 16.2074C10.7047 15.0587 11.2598 13.6903 11.7981 12.3671C12.4808 10.6813 13.1274 9.09021 14.3138 8.27132C15.4988 7.45106 17.3013 7.35625 19.2092 7.25595C20.6966 7.17626 22.2382 7.0952 23.6605 6.65553C25.0245 6.23509 26.2844 5.45605 27.5027 4.70311C29.1303 3.69874 30.6677 2.74795 32.2329 2.74795C33.7981 2.74795 35.3369 3.69874 36.9659 4.70586C38.1842 5.46017 39.4427 6.23784 40.8067 6.65827C42.229 7.09657 43.7692 7.17764 45.2581 7.25733C47.166 7.35763 48.967 7.45518 50.152 8.27407C51.3398 9.0957 51.9864 10.6868 52.6691 12.3699C53.2075 13.6944 53.7611 15.0615 54.6436 16.2101C55.5081 17.3368 56.693 18.2464 57.8378 19.1257C59.3308 20.273 60.742 21.3557 61.2013 22.7022C61.63 23.9511 61.1777 25.5683 60.7017 27.2802C60.3118 28.6803 59.9094 30.1257 59.9094 31.6028C59.9094 33.0798 60.3104 34.5252 60.7017 35.9239C61.1792 37.6359 61.63 39.253 61.2013 40.5047Z" fill="white"/>
<path d="M32.233 10.9909C20.7564 10.9909 11.4194 20.2364 11.4194 31.6005C11.4194 42.9647 20.7564 52.2101 32.233 52.2101C43.7096 52.2101 53.0466 42.9647 53.0466 31.6005C53.0466 20.2364 43.7096 10.9909 32.233 10.9909ZM32.233 49.4622C22.2869 49.4622 14.1946 41.4492 14.1946 31.6005C14.1946 21.7519 22.2869 13.7389 32.233 13.7389C37.3629 13.7389 41.9876 15.8809 45.2762 19.2966L32.0526 37.723L24.8886 30.6291C24.3461 30.0919 23.4691 30.0919 22.9266 30.6291C22.384 31.1663 22.384 32.0347 22.9266 32.5719L31.252 40.8158C31.5129 41.0755 31.8667 41.2183 32.233 41.2183C32.2705 41.2183 32.3107 41.217 32.3496 41.2128C32.7561 41.1799 33.128 40.9697 33.3639 40.6399L47.0967 21.5032C49.0948 24.3775 50.2715 27.8537 50.2715 31.6005C50.2715 41.4492 42.1791 49.4622 32.233 49.4622Z" fill="white"/>
</svg>
