<svg width="68" height="66" viewBox="0 0 68 66" fill="none" xmlns="http://www.w3.org/2000/svg">
<path d="M66.8176 36.6957C66.4443 35.3619 66.0928 34.1012 66.0928 32.9508C66.0928 31.8004 66.4443 30.5397 66.8176 29.2059C67.4117 27.0827 68.0248 24.8865 67.2912 22.7518C66.53 20.5312 64.6329 19.0799 62.7982 17.6788C61.6986 16.8379 60.66 16.0442 59.986 15.1703C59.3004 14.2792 58.8152 13.0901 58.3039 11.8308C57.4599 9.76204 56.5883 7.62166 54.636 6.27784C52.7157 4.95408 50.3188 4.82658 48.0048 4.7048C46.5609 4.62887 45.1955 4.55581 44.0523 4.20481C42.9831 3.87673 41.8763 3.19623 40.7054 2.47561C38.8214 1.31517 36.6846 0 34.2137 0C31.7428 0 29.606 1.31517 27.722 2.47704C26.5512 3.19766 25.4472 3.8796 24.3766 4.20624C23.232 4.55724 21.8665 4.6303 20.4226 4.70623C18.1071 4.82944 15.7132 4.95551 13.7914 6.27928C11.8391 7.6231 10.9675 9.76204 10.1236 11.8308C9.60935 13.0901 9.12418 14.2806 8.43855 15.1717C7.76453 16.0485 6.72592 16.8422 5.62629 17.6846C3.79309 19.0871 1.89888 20.5355 1.13771 22.7532C0.404141 24.8893 1.01714 27.0841 1.60981 29.2087C1.98313 30.5425 2.33466 31.8018 2.33466 32.9522C2.33466 34.1027 1.98313 35.3634 1.60981 36.6972C1.01714 38.8203 0.404141 41.0166 1.13771 43.1541C1.89888 45.3718 3.79454 46.8231 5.62774 48.2242C6.72737 49.0638 7.76599 49.8589 8.43855 50.7328C9.12563 51.6239 9.61081 52.813 10.1236 54.0737C10.9675 56.1424 11.8406 58.2828 13.7943 59.6295C15.7132 60.9504 18.1086 61.0765 20.4226 61.1982C21.8665 61.2742 23.232 61.3472 24.3752 61.6982C25.4443 62.0263 26.5497 62.7068 27.7191 63.426C29.6046 64.585 31.7414 65.9016 34.2137 65.9016C36.6861 65.9016 38.8243 64.585 40.7113 63.4246C41.8806 62.7054 42.9846 62.0249 44.0552 61.6968C45.1984 61.3458 46.5638 61.2727 48.0077 61.1968C50.3232 61.075 52.7171 60.949 54.636 59.6281C56.5927 58.2814 57.4643 56.1381 58.3082 54.068C58.821 52.8101 59.3047 51.621 59.9874 50.7328C60.6615 49.8589 61.7001 49.0638 62.7997 48.2242C64.6344 46.8217 66.53 45.3718 67.2926 43.1527C68.0262 41.0152 67.4117 38.8203 66.8176 36.6957ZM64.5398 42.2343C64.0589 43.6355 62.5816 44.7644 61.0186 45.9592C59.8202 46.8761 58.5797 47.8245 57.6732 48.9993C56.7537 50.197 56.1727 51.621 55.6105 53.0007C54.8944 54.7599 54.2175 56.4204 52.9726 57.2771C51.7321 58.131 49.848 58.2298 47.8521 58.3344C46.2935 58.416 44.6796 58.5006 43.1892 58.959C41.7642 59.3988 40.4453 60.2083 39.1713 60.9934C37.4645 62.0449 35.8535 63.0363 34.2135 63.0363C32.5735 63.0363 30.964 62.0449 29.2572 60.9934C27.9847 60.2097 26.6672 59.3988 25.2407 58.959C23.7504 58.502 22.1365 58.416 20.5779 58.3344C18.582 58.2298 16.6965 58.1295 15.4574 57.2771C14.214 56.4204 13.5356 54.7599 12.8194 53.0021C12.2573 51.6225 11.6748 50.197 10.7538 48.9993C9.84885 47.8245 8.60832 46.8761 7.40846 45.9578C5.8469 44.763 4.37105 43.6355 3.89023 42.2343C3.44137 40.9292 3.91347 39.2415 4.41172 37.4565C4.81845 35.9966 5.23971 34.4895 5.23971 32.9494C5.23971 31.4093 4.81845 29.9036 4.41172 28.4437C3.91202 26.6586 3.44137 24.9724 3.89023 23.6673C4.37105 22.2661 5.84545 21.1387 7.40701 19.9438C8.60687 19.0255 9.84885 18.0757 10.7524 16.8995C11.6762 15.7018 12.2573 14.2749 12.8209 12.8952C13.5356 11.1374 14.2125 9.47837 15.4545 8.62452C16.695 7.76923 18.582 7.67037 20.5793 7.56579C22.1365 7.4827 23.7504 7.39817 25.2393 6.93973C26.6672 6.50134 27.9862 5.68903 29.2616 4.90394C30.9655 3.85668 32.575 2.86529 34.2135 2.86529C35.8521 2.86529 37.463 3.85668 39.1684 4.9068C40.4438 5.69333 41.7613 6.5042 43.1892 6.94259C44.6782 7.39961 46.2906 7.48413 47.8492 7.56722C49.8466 7.67181 51.7321 7.77352 52.9726 8.62738C54.216 9.4841 54.8929 11.1431 55.6076 12.8981C56.1712 14.2792 56.7508 15.7046 57.6747 16.9023C58.5797 18.0771 59.8202 19.0255 61.0186 19.9424C62.5816 21.1387 64.0589 22.2676 64.5398 23.6716C64.9886 24.9738 64.5151 26.6601 64.0168 28.4451C63.6086 29.905 63.1874 31.4121 63.1874 32.9522C63.1874 34.4923 63.6072 35.9995 64.0168 37.4579C64.5167 39.243 64.9886 40.9292 64.5398 42.2343Z" fill="white"/>
<path d="M34.2163 10.0081C21.3669 10.0081 10.9507 20.2816 10.9507 32.9539C10.9507 45.6266 21.3669 55.8996 34.2163 55.8996C47.0652 55.8996 57.4819 45.6266 57.4819 32.9539C57.4679 20.287 47.0598 10.022 34.2163 10.0081V10.0081ZM34.2163 53.7143C22.5905 53.7143 13.1665 44.4198 13.1665 32.9539C13.1665 21.4885 22.5905 12.1934 34.2163 12.1934C45.8415 12.1934 55.2662 21.4885 55.2662 32.9539C55.2532 44.4145 45.8361 53.702 34.2163 53.7143Z" fill="white"/>
<path d="M23.4614 42.0152L43.4034 22.3474L44.9706 23.8924L25.028 43.5608L23.4614 42.0152Z" fill="white"/>
<path d="M40.8632 35.1392C38.4154 35.1392 36.4316 37.0961 36.4316 39.5098C36.4316 41.9239 38.4154 43.8804 40.8632 43.8804C43.3105 43.8804 45.2948 41.9239 45.2948 39.5098C45.2948 37.0961 43.3105 35.1392 40.8632 35.1392ZM40.8632 41.6951C39.6396 41.6951 38.6474 40.7166 38.6474 39.5098C38.6474 38.3029 39.6396 37.3245 40.8632 37.3245C42.0869 37.3245 43.079 38.3029 43.079 39.5098C43.079 40.7166 42.0869 41.6951 40.8632 41.6951Z" fill="white"/>
<path d="M27.5688 30.7684C30.0161 30.7684 32.0004 28.812 32.0004 26.3978C32.0004 23.9842 30.0161 22.0272 27.5688 22.0272C25.1209 22.0272 23.1372 23.9842 23.1372 26.3978C23.1372 28.812 25.1209 30.7684 27.5688 30.7684ZM27.5688 24.2125C28.7924 24.2125 29.7846 25.191 29.7846 26.3978C29.7846 27.6047 28.7924 28.5831 27.5688 28.5831C26.3451 28.5831 25.353 27.6047 25.353 26.3978C25.353 25.191 26.3451 24.2125 27.5688 24.2125Z" fill="white"/>
</svg>
